<svg version="1.1" id="Layer_1" xmlns="http://www.w3.org/2000/svg" xmlns:xlink="http://www.w3.org/1999/xlink" x="0px" y="0px"
	 width="100%" viewBox="0 0 3000 3000" enable-background="new 0 0 3000 3000" xml:space="preserve">
<path fill="#FFFFFF" opacity="1.000000" stroke="none" 
	d="
M2.000000,1116.000000 
	C2.000000,744.000061 2.000000,373.000122 2.000000,2.000149 
	C1001.999756,2.000100 2001.999512,2.000100 3001.999512,2.000050 
	C3001.999512,1001.999573 3001.999512,2001.999146 3001.999756,3001.999023 
	C2002.000610,3001.999512 1002.001221,3001.999512 2.000905,3001.999756 
	C2.000000,2373.666748 2.000000,1745.333374 2.000000,1116.000000 
M200.070984,1559.958130 
	C200.231735,1571.364258 200.392502,1582.770264 200.356583,1596.019043 
	C200.348816,1995.975708 200.341064,2395.932373 200.333344,2795.888916 
	C200.333328,2796.888916 200.235291,2797.900635 200.353958,2798.886230 
	C200.616592,2801.068604 200.988190,2803.238037 201.354752,2805.674561 
	C205.990753,2805.674561 209.980896,2805.674561 213.971039,2805.674561 
	C609.594910,2805.674561 1005.218750,2805.675293 1400.842651,2805.665527 
	C1404.505493,2805.665527 1408.168213,2805.528809 1413.673218,2805.936035 
	C1435.612915,2805.847900 1457.552612,2805.759766 1481.419189,2805.886963 
	C1496.524780,2805.748047 1511.630371,2805.609131 1528.505615,2805.600098 
	C1551.061768,2805.552734 1573.617920,2805.505615 1598.017212,2805.651855 
	C1997.628540,2805.659424 2397.239990,2805.667725 2796.851318,2805.656250 
	C2799.757324,2805.656006 2802.663330,2805.379883 2806.335938,2805.193848 
	C2806.335938,2801.034668 2806.335938,2797.429932 2806.335938,2793.825195 
	C2806.336182,2392.214111 2806.336914,1990.602905 2806.317627,1588.991699 
	C2806.317627,1585.338135 2806.044189,1581.684692 2806.372314,1576.259644 
	C2806.385742,1570.148682 2806.399170,1564.037720 2807.527100,1556.708496 
	C2807.103027,1544.837158 2806.487061,1532.968750 2806.304932,1521.093750 
	C2806.095459,1507.467651 2806.270752,1493.835815 2807.335938,1478.894653 
	C2807.052246,1467.938599 2806.768799,1456.982422 2806.444824,1444.204590 
	C2806.283936,1438.132812 2806.123047,1432.061157 2806.296631,1424.141968 
	C2806.308594,1423.475708 2806.330811,1422.809448 2806.330811,1422.143188 
	C2806.333496,1017.865356 2806.334717,613.587585 2806.335938,209.309769 
	C2806.335938,206.394165 2806.335938,203.478561 2806.335938,199.663727 
	C2801.640869,199.663727 2797.727295,199.663727 2793.813477,199.663727 
	C2392.868652,199.663727 1991.923584,199.662750 1590.978638,199.679230 
	C1587.322632,199.679382 1583.666626,199.913254 1578.233887,199.612946 
	C1572.148315,199.579865 1566.062744,199.546783 1558.694824,198.475784 
	C1547.671631,198.833511 1536.648560,199.191238 1523.810669,199.759293 
	C1508.326050,199.396149 1492.882812,200.598282 1477.331299,198.354294 
	C1467.833984,196.983902 1457.839478,199.058533 1446.238281,199.590775 
	C1440.148315,199.761139 1434.058472,199.931503 1426.129883,199.731094 
	C1422.130737,199.708618 1418.131714,199.666534 1414.132568,199.666504 
	C1014.526611,199.663513 614.920654,199.663696 215.314682,199.663727 
	C212.648422,199.663727 209.977203,199.563873 207.317444,199.695496 
	C205.126755,199.803925 202.949646,200.186920 200.333374,200.500076 
	C200.333374,204.762527 200.333359,208.390060 200.333359,212.017593 
	C200.333344,607.624146 200.332779,1003.230713 200.342194,1398.837280 
	C200.342270,1402.500122 200.475662,1406.162842 200.062027,1411.667603 
	C200.212555,1434.192383 200.363083,1456.717163 200.264404,1481.196533 
	C200.231979,1496.208740 200.199539,1511.221069 200.030838,1528.062744 
	C200.141022,1538.082275 200.251221,1548.101807 200.070984,1559.958130 
z"/>
<path fill="#CCCCCC" opacity="1.000000" stroke="none" 
	d="
M1526.735962,2805.470215 
	C1511.630371,2805.609131 1496.524780,2805.748047 1479.845703,2805.292480 
	C1465.360718,2804.312744 1452.447021,2803.989990 1439.538696,2803.520752 
	C1430.320679,2803.185547 1421.109741,2802.653809 1411.033691,2802.016602 
	C1391.033203,2799.999023 1371.799683,2798.855713 1352.776367,2796.203613 
	C1316.314575,2791.120361 1279.731567,2786.406982 1243.634033,2779.322510 
	C1181.612671,2767.150879 1120.939819,2749.764404 1061.413086,2728.335938 
	C972.172058,2696.210693 887.507019,2654.777588 807.446350,2604.035645 
	C715.100647,2545.507812 630.915100,2476.918457 556.457886,2396.749756 
	C532.039246,2370.458008 508.076538,2343.619385 485.611572,2315.660156 
	C422.638062,2237.284180 369.628510,2152.547119 326.483765,2061.647217 
	C298.913849,2003.561401 275.839264,1943.785278 256.958191,1882.350952 
	C240.443085,1828.614746 227.783112,1773.953613 218.474976,1718.554688 
	C211.549683,1677.337158 206.811508,1635.808960 203.910950,1593.205444 
	C203.283569,1580.912964 202.534790,1569.519287 201.862656,1557.186035 
	C201.958511,1548.652100 202.123917,1541.053955 201.912048,1533.466064 
	C201.844345,1531.040771 200.777054,1528.643433 200.167114,1526.233276 
	C200.199539,1511.221069 200.231979,1496.208740 200.758377,1479.558472 
	C201.656631,1464.434082 201.980621,1450.944702 202.493103,1437.462524 
	C202.841614,1428.293823 203.454239,1419.135132 204.108643,1409.101074 
	C206.711853,1384.168945 208.887192,1360.076782 211.652237,1336.052734 
	C218.113663,1279.912354 229.372849,1224.698730 243.647598,1170.031616 
	C265.044678,1088.088623 294.461975,1009.144897 331.379974,932.989319 
	C354.031860,886.262329 379.694427,841.212585 407.747284,797.490234 
	C453.331238,726.444519 505.532501,660.605957 563.981628,599.823730 
	C588.175781,574.663818 613.585327,550.570740 639.595703,527.280762 
	C692.957092,479.500244 750.239502,436.773285 810.959656,398.735809 
	C860.332703,367.806671 911.440430,340.065643 964.520752,315.999298 
	C1014.819946,293.193939 1066.386475,273.771454 1119.135010,257.395142 
	C1165.175293,243.101486 1211.893311,231.578171 1259.220215,222.577896 
	C1297.341553,215.328247 1335.723633,209.671036 1374.394287,206.192825 
	C1392.219727,204.589539 1410.065430,203.211502 1428.803711,201.845245 
	C1433.614136,201.976288 1437.549927,202.276047 1441.421021,201.903091 
	C1443.690186,201.684479 1445.856079,200.394104 1448.068359,199.585876 
	C1457.839478,199.058533 1467.833984,196.983902 1477.331299,198.354294 
	C1492.882812,200.598282 1508.326050,199.396149 1525.292725,200.335114 
	C1537.826172,201.282806 1548.877319,201.654694 1560.843262,202.011154 
	C1567.854004,201.954315 1573.949951,201.912872 1580.920654,202.063782 
	C1603.261230,204.060776 1624.746582,205.663345 1646.188965,207.714233 
	C1684.849731,211.411987 1723.130371,217.680344 1761.207764,225.263321 
	C1824.857178,237.938934 1887.122803,255.512405 1948.140137,277.609314 
	C2011.091553,300.406616 2071.884521,327.934418 2130.532959,360.211029 
	C2189.800781,392.828735 2246.194580,429.823090 2299.746094,471.170288 
	C2357.008789,515.382629 2410.238281,564.036621 2459.404053,617.057678 
	C2494.001221,654.367615 2526.271484,693.655640 2556.284668,734.789307 
	C2596.955811,790.530212 2632.966553,849.125122 2664.395752,910.527588 
	C2699.467773,979.047607 2727.992432,1050.219604 2750.396240,1123.867065 
	C2768.592041,1183.681763 2782.215576,1244.524170 2791.621338,1306.303223 
	C2797.661621,1345.978638 2801.671387,1385.891113 2804.045410,1426.863281 
	C2803.966797,1433.872559 2803.970459,1439.972168 2803.963135,1447.002197 
	C2803.955078,1456.034912 2803.770020,1464.144287 2804.067383,1472.235718 
	C2804.165771,1474.916138 2805.506104,1477.550903 2806.278809,1480.206421 
	C2806.270752,1493.835815 2806.095459,1507.467651 2806.304932,1521.093750 
	C2806.487061,1532.968750 2807.103027,1544.837158 2806.174316,1557.661743 
	C2804.636963,1565.109497 2804.452393,1571.604004 2804.050293,1578.965942 
	C2803.332031,1586.441040 2802.918457,1593.056519 2802.315674,1599.654785 
	C2800.113525,1623.758301 2798.683594,1647.969238 2795.438232,1671.933228 
	C2787.863525,1727.863281 2777.246338,1783.212524 2762.631348,1837.809326 
	C2737.694336,1930.963379 2703.267578,2020.326904 2658.407959,2105.721924 
	C2633.469238,2153.194580 2605.838379,2198.971436 2575.460938,2243.153320 
	C2535.997803,2300.549316 2492.007812,2354.279053 2443.762451,2404.407715 
	C2419.101074,2430.031982 2393.188477,2454.546387 2366.721680,2478.316406 
	C2327.369385,2513.659180 2285.559570,2545.991699 2241.947510,2576.002930 
	C2162.728516,2630.516846 2078.614990,2675.895020 1989.391724,2711.692627 
	C1913.365112,2742.195801 1835.158691,2765.420166 1754.676514,2781.004150 
	C1702.191284,2791.167236 1649.314087,2798.067139 1595.125244,2801.960449 
	C1572.655396,2802.734863 1551.090088,2803.592773 1529.527222,2804.510254 
	C1528.584839,2804.550293 1527.665894,2805.137695 1526.735962,2805.470215 
M1110.215454,925.248413 
	C1097.635620,941.132690 1084.851074,956.860046 1072.520386,972.935425 
	C1049.937500,1002.376526 1031.740112,1034.270508 1017.794006,1068.770142 
	C996.472595,1121.514893 977.486084,1174.896484 967.371826,1231.095703 
	C964.199280,1248.723389 960.701660,1266.294922 957.174316,1283.856201 
	C951.741211,1310.905884 948.669800,1338.209229 947.621521,1365.773071 
	C947.205444,1376.712036 946.272949,1387.632812 945.494446,1398.556030 
	C944.481262,1412.770386 942.552734,1426.974609 942.477539,1441.190796 
	C942.203064,1493.118286 941.559570,1545.061523 944.323853,1596.957031 
	C944.376953,1597.954468 944.279907,1598.962036 944.365173,1599.955200 
	C946.349060,1623.081543 948.309570,1646.210205 950.369995,1669.329712 
	C950.958252,1675.930786 951.679016,1682.529541 952.631287,1689.086792 
	C954.394836,1701.229492 956.252991,1713.361084 958.293823,1725.459961 
	C960.829895,1740.494629 963.216736,1755.570679 966.369507,1770.480469 
	C969.046204,1783.139160 972.653015,1795.604614 975.964478,1808.124878 
	C983.927307,1838.230713 989.951416,1868.891357 1002.273621,1897.739258 
	C1010.755432,1917.596313 1018.172729,1937.929077 1027.201660,1957.526001 
	C1038.761108,1982.615234 1053.828735,2005.793335 1067.898926,2029.542603 
	C1080.587402,2050.959473 1096.483276,2069.413574 1112.572021,2087.943115 
	C1116.862793,2092.885010 1122.398071,2096.811523 1126.327637,2101.989014 
	C1136.293213,2115.118408 1148.846558,2125.680664 1161.645386,2135.459473 
	C1177.440796,2147.527832 1194.776733,2157.666992 1211.879761,2167.917725 
	C1246.403320,2188.610107 1283.731812,2202.446533 1323.045898,2210.605713 
	C1336.617310,2213.422363 1350.662231,2213.907471 1364.455811,2215.723145 
	C1372.335815,2216.760498 1380.105835,2219.126709 1387.993896,2219.519287 
	C1414.540283,2220.839844 1441.064941,2220.408691 1467.346924,2215.724854 
	C1493.388306,2211.083740 1520.278320,2210.725342 1545.171265,2200.212646 
	C1547.863770,2199.075684 1551.054321,2199.182129 1553.903809,2198.339600 
	C1560.220581,2196.471436 1566.719727,2194.926514 1572.688354,2192.237305 
	C1583.603394,2187.319092 1593.800537,2180.593262 1604.994751,2176.555664 
	C1625.578491,2169.131592 1642.513672,2155.203369 1662.132446,2146.116943 
	C1667.582886,2143.592285 1671.690186,2138.157959 1676.390015,2134.031494 
	C1677.363770,2133.176758 1678.135010,2132.072510 1679.163574,2131.302246 
	C1688.439453,2124.356689 1697.852905,2117.589844 1707.000732,2110.480713 
	C1710.329834,2107.893555 1713.012939,2104.485352 1716.057251,2101.519775 
	C1725.287598,2092.528076 1734.308838,2083.301514 1743.881348,2074.688721 
	C1750.843018,2068.424805 1757.955322,2062.568848 1761.651489,2053.544189 
	C1762.735840,2050.896729 1765.023315,2048.659912 1767.032715,2046.487793 
	C1776.720093,2036.016724 1787.387939,2026.349976 1793.018066,2012.703857 
	C1793.983521,2010.363892 1796.386353,2008.644653 1797.983887,2006.531860 
	C1801.173706,2002.312866 1804.633057,1998.238647 1807.326050,1993.714722 
	C1814.127197,1982.289795 1820.650391,1970.696289 1827.124390,1959.080566 
	C1833.275391,1948.044189 1840.415283,1937.366333 1845.031860,1925.703979 
	C1857.849365,1893.325073 1873.158081,1861.830688 1881.289795,1827.711182 
	C1889.203735,1794.505615 1900.642090,1762.196655 1904.763428,1728.006714 
	C1907.655273,1704.016479 1913.320068,1680.369263 1916.533447,1656.406128 
	C1919.173340,1636.719482 1920.036621,1616.794067 1921.662598,1596.972412 
	C1921.961548,1593.326172 1922.071777,1589.663940 1922.389526,1586.019653 
	C1923.454224,1573.808350 1925.058472,1561.620972 1925.543945,1549.388184 
	C1926.097412,1535.442261 1925.420288,1521.451538 1925.753906,1507.491577 
	C1926.007324,1496.884155 1927.755737,1486.275269 1927.485718,1475.701660 
	C1927.130859,1461.806885 1925.140381,1447.962402 1924.410889,1434.067017 
	C1923.435669,1415.486694 1923.111084,1396.873169 1922.284912,1378.283691 
	C1921.710083,1365.352173 1921.319580,1352.373535 1919.849609,1339.529907 
	C1917.627075,1320.111206 1914.531982,1300.792358 1911.815186,1281.430054 
	C1907.523560,1250.844971 1902.033081,1220.549438 1893.792480,1190.695801 
	C1878.821411,1136.458862 1862.357300,1082.881836 1835.429565,1033.074219 
	C1820.832886,1006.074951 1804.749756,979.930908 1785.211182,956.405457 
	C1767.645752,935.255859 1748.095337,915.663879 1728.466675,896.354431 
	C1717.385498,885.453613 1704.777710,875.961975 1692.163086,866.790955 
	C1659.376343,842.954407 1623.008911,826.096863 1585.105225,811.968628 
	C1552.688721,799.885620 1518.754517,795.772766 1485.017090,790.630920 
	C1472.620850,788.741638 1459.759277,789.709656 1447.110352,789.723389 
	C1430.855957,789.740967 1414.601929,790.133728 1398.347290,790.314453 
	C1393.040894,790.373413 1387.651367,789.664978 1382.440430,790.360596 
	C1365.692627,792.596558 1348.975098,795.114075 1332.309448,797.902161 
	C1284.367432,805.922485 1240.788940,825.466614 1199.255615,849.765747 
	C1165.668213,869.416016 1137.276978,895.534912 1110.215454,925.248413 
M1247.345093,2469.722412 
	C1230.662720,2467.029785 1213.673218,2465.538818 1197.367798,2461.371338 
	C1170.993164,2454.630371 1144.780029,2446.974854 1119.017700,2438.184814 
	C1075.818481,2423.444580 1034.858276,2403.697266 995.561890,2380.379639 
	C974.697998,2367.999268 954.391663,2354.819824 935.610962,2339.573486 
	C922.459778,2328.897461 910.481995,2316.794678 895.875305,2307.914551 
	C893.649536,2306.561523 891.874023,2304.417969 890.017578,2302.515625 
	C877.326416,2289.512451 864.696289,2276.449463 851.991333,2263.459961 
	C844.112183,2255.404297 835.830383,2247.718994 828.288208,2239.363281 
	C820.525085,2230.762939 813.155762,2221.767334 806.126404,2212.553955 
	C795.637756,2198.806152 785.074158,2185.065918 775.469727,2170.702393 
	C750.891235,2133.945557 726.569336,2097.001465 706.737427,2057.351562 
	C705.249573,2054.376465 703.314026,2051.597656 702.074890,2048.530273 
	C686.267334,2009.403931 669.427368,1970.645386 655.141541,1930.968140 
	C642.323853,1895.368530 633.650818,1858.407104 626.153442,1821.261963 
	C620.513916,1793.321533 613.581665,1765.646973 610.211121,1737.248657 
	C608.218811,1720.462769 604.311951,1703.895020 602.533936,1687.094971 
	C599.881531,1662.033081 597.875854,1636.878784 596.475769,1611.714844 
	C595.164734,1588.152222 594.594543,1564.528687 594.423462,1540.926636 
	C594.156189,1504.036621 593.443054,1467.099365 594.941589,1430.264282 
	C596.018372,1403.796021 594.762146,1377.228271 599.294800,1350.775024 
	C603.203491,1327.963135 603.702637,1304.586792 606.373230,1281.536865 
	C608.661743,1261.784424 611.031921,1241.970581 614.898987,1222.488037 
	C621.227783,1190.603271 628.278320,1158.837646 636.002808,1127.261230 
	C643.098572,1098.255005 649.938110,1069.169922 661.288330,1041.309937 
	C675.712891,1005.903503 690.101685,970.560059 707.423340,936.395142 
	C726.120789,899.516541 746.937622,863.932739 770.648193,830.168030 
	C785.905884,808.440735 802.635071,787.655334 819.818848,767.392578 
	C848.731689,733.299194 881.373108,703.038025 916.760498,675.624695 
	C948.963196,650.678528 983.841187,629.887756 1018.498657,608.802795 
	C1045.272339,592.514099 1074.420776,580.914124 1104.081543,570.883118 
	C1125.461060,563.652771 1146.706909,555.395996 1168.673706,550.672852 
	C1207.236084,542.381470 1245.816650,533.685364 1285.171753,529.586975 
	C1298.661865,528.182129 1312.179932,525.802917 1325.672607,525.887268 
	C1374.855591,526.194580 1424.149170,523.047302 1473.173218,529.682495 
	C1496.830688,532.884521 1520.843140,534.443848 1544.083862,539.535278 
	C1589.179810,549.414490 1634.121216,560.421814 1676.229248,580.202393 
	C1698.819580,590.814453 1721.146729,601.939941 1741.433594,616.721619 
	C1758.074341,628.846497 1774.979736,640.609741 1791.550049,652.828735 
	C1801.909302,660.467651 1812.360229,668.106506 1821.883545,676.724976 
	C1835.904297,689.413818 1849.278320,702.832581 1862.656616,716.211609 
	C1873.905029,727.460571 1885.671631,738.370178 1895.590332,750.729065 
	C1911.156860,770.125671 1929.060547,787.485046 1942.725098,808.623047 
	C1956.770752,830.350525 1973.232910,850.520447 1988.765625,871.276123 
	C1990.807617,874.004700 1993.608398,876.165405 1997.176880,879.696594 
	C1999.327515,874.844116 2001.236450,871.741943 2002.109863,868.371460 
	C2008.098389,845.263123 2013.729248,822.061829 2019.770630,798.967712 
	C2022.796265,787.400940 2026.282227,775.946533 2029.837769,764.527832 
	C2042.384277,724.235107 2055.062744,683.983521 2067.666016,643.708435 
	C2072.708740,627.594055 2077.685547,611.459045 2082.596191,595.642639 
	C1693.232666,338.554962 1087.071045,349.986633 695.296265,791.620605 
	C333.594421,1199.354492 328.506805,1832.808472 726.873291,2247.650635 
	C1117.951782,2654.903564 1704.062866,2661.986328 2085.981934,2407.099121 
	C2082.235840,2396.048096 2079.121094,2384.859375 2074.712891,2374.206055 
	C2056.656250,2330.568604 2040.190430,2286.360352 2025.974487,2241.326172 
	C2019.573608,2221.048828 2012.952881,2200.815430 2007.430664,2180.293457 
	C2001.570679,2158.515381 1996.922607,2136.411865 1991.678101,2114.466797 
	C1990.706787,2110.401855 1990.313232,2105.697510 1983.806274,2105.242676 
	C1982.397705,2107.961182 1980.722412,2110.748291 1979.454834,2113.709717 
	C1967.526245,2141.580078 1953.374390,2168.271729 1937.760010,2194.252441 
	C1927.326538,2211.612549 1918.679565,2230.065430 1904.730591,2245.171387 
	C1900.696899,2249.539551 1897.589600,2254.748047 1893.806641,2259.365479 
	C1879.281738,2277.095215 1865.643677,2295.696045 1849.771973,2312.134766 
	C1835.525635,2326.889893 1819.406006,2340.062744 1802.981201,2352.430908 
	C1782.813232,2367.617920 1761.941162,2382.007324 1740.462891,2395.266357 
	C1726.986084,2403.585938 1711.983765,2409.531250 1697.401489,2415.940430 
	C1674.976196,2425.796875 1653.502319,2437.716797 1629.220459,2443.423340 
	C1603.101440,2449.561768 1577.991089,2459.695312 1551.195923,2463.437500 
	C1527.226196,2466.785156 1503.772461,2473.470703 1479.417358,2474.431396 
	C1471.138306,2474.758057 1462.891602,2475.837891 1454.615112,2476.306641 
	C1433.407227,2477.507812 1412.193726,2478.619873 1390.975830,2479.629395 
	C1385.322021,2479.898682 1379.641479,2479.794434 1373.978638,2479.647949 
	C1350.076294,2479.030273 1326.175659,2478.343506 1302.275757,2477.637207 
	C1300.634399,2477.588867 1299.004395,2477.169678 1297.368042,2476.931152 
	C1281.289673,2474.585693 1265.211182,2472.241943 1247.345093,2469.722412 
M2321.759277,898.793335 
	C2314.626953,925.415222 2306.804443,951.875061 2300.506348,978.692810 
	C2287.527588,1033.957642 2275.369629,1089.415039 2262.860840,1144.790283 
	C2254.159424,1183.311279 2245.269775,1221.790771 2236.787842,1260.360107 
	C2232.082764,1281.755371 2228.186035,1303.327026 2223.660400,1324.763428 
	C2219.692139,1343.560181 2215.234863,1362.253784 2211.251953,1381.047607 
	C2210.020264,1386.859863 2209.975830,1392.920044 2208.803955,1398.749146 
	C2202.325684,1430.968384 2195.569824,1463.132202 2189.183105,1495.369141 
	C2188.301270,1499.820068 2188.318848,1504.669067 2189.012207,1509.165527 
	C2190.375732,1518.009888 2192.671387,1526.705688 2194.288818,1535.516846 
	C2199.016113,1561.270752 2203.426270,1587.084106 2208.310547,1612.807739 
	C2210.845703,1626.158325 2214.383545,1639.317139 2216.983398,1652.657349 
	C2219.457275,1665.349731 2221.063965,1678.209961 2223.465332,1690.918335 
	C2229.622803,1723.503174 2235.835938,1756.079346 2242.360352,1788.592163 
	C2247.317871,1813.297974 2252.690186,1837.922241 2258.075439,1862.539551 
	C2260.340820,1872.895874 2263.315186,1883.096802 2265.600830,1893.449219 
	C2267.812256,1903.465942 2269.384766,1913.623047 2271.552490,1923.650391 
	C2273.377441,1932.091553 2276.006836,1940.365356 2277.676514,1948.832275 
	C2289.498779,2008.785034 2303.772949,2068.165771 2318.899170,2127.354248 
	C2322.842529,2142.785156 2326.390625,2158.316895 2330.276123,2173.763184 
	C2331.281250,2177.758789 2332.875732,2181.606445 2334.908203,2187.617920 
	C2519.212402,1955.865723 2601.239746,1694.696899 2575.254883,1401.535522 
	C2556.196045,1186.515747 2476.195068,995.211182 2340.505615,825.097290 
	C2337.969971,832.943298 2335.675781,838.773682 2334.213867,844.805725 
	C2329.994629,862.215149 2326.110352,879.705811 2321.759277,898.793335 
z"/>
<path fill="#181818" opacity="1.000000" stroke="none" 
	d="
M203.789551,1594.104248 
	C206.811508,1635.808960 211.549683,1677.337158 218.474976,1718.554688 
	C227.783112,1773.953613 240.443085,1828.614746 256.958191,1882.350952 
	C275.839264,1943.785278 298.913849,2003.561401 326.483765,2061.647217 
	C369.628510,2152.547119 422.638062,2237.284180 485.611572,2315.660156 
	C508.076538,2343.619385 532.039246,2370.458008 556.457886,2396.749756 
	C630.915100,2476.918457 715.100647,2545.507812 807.446350,2604.035645 
	C887.507019,2654.777588 972.172058,2696.210693 1061.413086,2728.335938 
	C1120.939819,2749.764404 1181.612671,2767.150879 1243.634033,2779.322510 
	C1279.731567,2786.406982 1316.314575,2791.120361 1352.776367,2796.203613 
	C1371.799683,2798.855713 1391.033203,2799.999023 1411.021973,2802.559326 
	C1411.858521,2804.015137 1411.844849,2804.735596 1411.831055,2805.455811 
	C1408.168213,2805.528809 1404.505493,2805.665527 1400.842651,2805.665527 
	C1005.218750,2805.675293 609.594910,2805.674561 213.971039,2805.674561 
	C209.980896,2805.674561 205.990753,2805.674561 201.354752,2805.674561 
	C200.988190,2803.238037 200.616592,2801.068604 200.353958,2798.886230 
	C200.235291,2797.900635 200.333328,2796.888916 200.333344,2795.888916 
	C200.341064,2395.932373 200.348816,1995.975708 200.994751,1595.140991 
	C202.351807,1594.209961 203.070679,1594.157104 203.789551,1594.104248 
z"/>
<path fill="#181818" opacity="1.000000" stroke="none" 
	d="
M1427.901855,201.731354 
	C1410.065430,203.211502 1392.219727,204.589539 1374.394287,206.192825 
	C1335.723633,209.671036 1297.341553,215.328247 1259.220215,222.577896 
	C1211.893311,231.578171 1165.175293,243.101486 1119.135010,257.395142 
	C1066.386475,273.771454 1014.819946,293.193939 964.520752,315.999298 
	C911.440430,340.065643 860.332703,367.806671 810.959656,398.735809 
	C750.239502,436.773285 692.957092,479.500244 639.595703,527.280762 
	C613.585327,550.570740 588.175781,574.663818 563.981628,599.823730 
	C505.532501,660.605957 453.331238,726.444519 407.747284,797.490234 
	C379.694427,841.212585 354.031860,886.262329 331.379974,932.989319 
	C294.461975,1009.144897 265.044678,1088.088623 243.647598,1170.031616 
	C229.372849,1224.698730 218.113663,1279.912354 211.652237,1336.052734 
	C208.887192,1360.076782 206.711853,1384.168945 203.539337,1409.125977 
	C202.055710,1409.956421 201.301254,1409.890991 200.546814,1409.825684 
	C200.475662,1406.162842 200.342270,1402.500122 200.342194,1398.837280 
	C200.332779,1003.230713 200.333344,607.624146 200.333359,212.017593 
	C200.333359,208.390060 200.333374,204.762527 200.333374,200.500076 
	C202.949646,200.186920 205.126755,199.803925 207.317444,199.695496 
	C209.977203,199.563873 212.648422,199.663727 215.314682,199.663727 
	C614.920654,199.663696 1014.526611,199.663513 1414.132568,199.666504 
	C1418.131714,199.666534 1422.130737,199.708618 1427.009033,200.322891 
	C1427.888062,200.914688 1427.901855,201.731354 1427.901855,201.731354 
z"/>
<path fill="#181818" opacity="1.000000" stroke="none" 
	d="
M1596.030029,2802.055176 
	C1649.314087,2798.067139 1702.191284,2791.167236 1754.676514,2781.004150 
	C1835.158691,2765.420166 1913.365112,2742.195801 1989.391724,2711.692627 
	C2078.614990,2675.895020 2162.728516,2630.516846 2241.947510,2576.002930 
	C2285.559570,2545.991699 2327.369385,2513.659180 2366.721680,2478.316406 
	C2393.188477,2454.546387 2419.101074,2430.031982 2443.762451,2404.407715 
	C2492.007812,2354.279053 2535.997803,2300.549316 2575.460938,2243.153320 
	C2605.838379,2198.971436 2633.469238,2153.194580 2658.407959,2105.721924 
	C2703.267578,2020.326904 2737.694336,1930.963379 2762.631348,1837.809326 
	C2777.246338,1783.212524 2787.863525,1727.863281 2795.438232,1671.933228 
	C2798.683594,1647.969238 2800.113525,1623.758301 2802.315674,1599.654785 
	C2802.918457,1593.056519 2803.332031,1586.441040 2804.458984,1578.972168 
	C2805.085205,1578.110840 2805.898438,1578.031128 2805.898438,1578.031128 
	C2806.044189,1581.684692 2806.317627,1585.338135 2806.317627,1588.991699 
	C2806.336914,1990.602905 2806.336182,2392.214111 2806.335938,2793.825195 
	C2806.335938,2797.429932 2806.335938,2801.034668 2806.335938,2805.193848 
	C2802.663330,2805.379883 2799.757324,2805.656006 2796.851318,2805.656250 
	C2397.239990,2805.667725 1997.628540,2805.659424 1597.095215,2804.984863 
	C1596.125610,2803.563721 1596.077759,2802.809570 1596.030029,2802.055176 
z"/>
<path fill="#181818" opacity="1.000000" stroke="none" 
	d="
M2804.127930,1425.953735 
	C2801.671387,1385.891113 2797.661621,1345.978638 2791.621338,1306.303223 
	C2782.215576,1244.524170 2768.592041,1183.681763 2750.396240,1123.867065 
	C2727.992432,1050.219604 2699.467773,979.047607 2664.395752,910.527588 
	C2632.966553,849.125122 2596.955811,790.530212 2556.284668,734.789307 
	C2526.271484,693.655640 2494.001221,654.367615 2459.404053,617.057678 
	C2410.238281,564.036621 2357.008789,515.382629 2299.746094,471.170288 
	C2246.194580,429.823090 2189.800781,392.828735 2130.532959,360.211029 
	C2071.884521,327.934418 2011.091553,300.406616 1948.140137,277.609314 
	C1887.122803,255.512405 1824.857178,237.938934 1761.207764,225.263321 
	C1723.130371,217.680344 1684.849731,211.411987 1646.188965,207.714233 
	C1624.746582,205.663345 1603.261230,204.060776 1580.900879,201.605652 
	C1580.006348,200.955154 1580.010620,200.038010 1580.010620,200.038010 
	C1583.666626,199.913254 1587.322632,199.679382 1590.978638,199.679230 
	C1991.923584,199.662750 2392.868652,199.663727 2793.813477,199.663727 
	C2797.727295,199.663727 2801.640869,199.663727 2806.335938,199.663727 
	C2806.335938,203.478561 2806.335938,206.394165 2806.335938,209.309769 
	C2806.334717,613.587585 2806.333496,1017.865356 2806.330811,1422.143188 
	C2806.330811,1422.809448 2806.308594,1423.475708 2805.670410,1425.067505 
	C2805.044434,1425.993042 2804.127930,1425.953735 2804.127930,1425.953735 
z"/>
<path fill="#535353" opacity="1.000000" stroke="none" 
	d="
M1595.125122,2801.960449 
	C1596.077759,2802.809570 1596.125610,2803.563721 1596.173706,2804.888184 
	C1573.617920,2805.505615 1551.061768,2805.552734 1527.620850,2805.535156 
	C1527.665894,2805.137695 1528.584839,2804.550293 1529.527222,2804.510254 
	C1551.090088,2803.592773 1572.655396,2802.734863 1595.125122,2801.960449 
z"/>
<path fill="#545454" opacity="1.000000" stroke="none" 
	d="
M200.304413,1410.746582 
	C201.301254,1409.890991 202.055710,1409.956421 203.379456,1409.996826 
	C203.454239,1419.135132 202.841614,1428.293823 202.493103,1437.462524 
	C201.980621,1450.944702 201.656631,1464.434082 200.882980,1478.581177 
	C200.363083,1456.717163 200.212555,1434.192383 200.304413,1410.746582 
z"/>
<path fill="#535353" opacity="1.000000" stroke="none" 
	d="
M1412.752197,2805.695801 
	C1411.844849,2804.735596 1411.858521,2804.015137 1411.883911,2802.752441 
	C1421.109741,2802.653809 1430.320679,2803.185547 1439.538696,2803.520752 
	C1452.447021,2803.989990 1465.360718,2804.312744 1478.882202,2805.185059 
	C1457.552612,2805.759766 1435.612915,2805.847900 1412.752197,2805.695801 
z"/>
<path fill="#C4C4C4" opacity="1.000000" stroke="none" 
	d="
M2806.807373,1479.550537 
	C2805.506104,1477.550903 2804.165771,1474.916138 2804.067383,1472.235718 
	C2803.770020,1464.144287 2803.955078,1456.034912 2804.592773,1447.102051 
	C2805.650879,1446.189575 2806.068115,1446.107910 2806.485107,1446.026367 
	C2806.768799,1456.982422 2807.052246,1467.938599 2806.807373,1479.550537 
z"/>
<path fill="#C4C4C4" opacity="1.000000" stroke="none" 
	d="
M1559.928589,202.026566 
	C1548.877319,201.654694 1537.826172,201.282806 1526.200195,200.229950 
	C1536.648560,199.191238 1547.671631,198.833511 1559.211914,199.620789 
	C1559.795410,201.186050 1559.861938,201.606308 1559.928589,202.026566 
z"/>
<path fill="#535353" opacity="1.000000" stroke="none" 
	d="
M203.910950,1593.205444 
	C203.070679,1594.157104 202.351807,1594.209961 201.093109,1594.219727 
	C200.392502,1582.770264 200.231735,1571.364258 200.572327,1559.046387 
	C201.073685,1558.134644 201.786011,1558.125610 201.786011,1558.125610 
	C202.534790,1569.519287 203.283569,1580.912964 203.910950,1593.205444 
z"/>
<path fill="#7F7F7F" opacity="1.000000" stroke="none" 
	d="
M201.862656,1557.186035 
	C201.786011,1558.125610 201.073685,1558.134644 200.717560,1558.127930 
	C200.251221,1548.101807 200.141022,1538.082275 200.098969,1527.147949 
	C200.777054,1528.643433 201.844345,1531.040771 201.912048,1533.466064 
	C202.123917,1541.053955 201.958511,1548.652100 201.862656,1557.186035 
z"/>
<path fill="#444444" opacity="1.000000" stroke="none" 
	d="
M2806.464844,1445.115479 
	C2806.068115,1446.107910 2805.650879,1446.189575 2804.603760,1446.171631 
	C2803.970459,1439.972168 2803.966797,1433.872559 2804.045410,1426.863281 
	C2804.127930,1425.953735 2805.044434,1425.993042 2805.503418,1425.991211 
	C2806.123047,1432.061157 2806.283936,1438.132812 2806.464844,1445.115479 
z"/>
<path fill="#474747" opacity="1.000000" stroke="none" 
	d="
M2806.135254,1577.145386 
	C2805.898438,1578.031128 2805.085205,1578.110840 2804.676758,1578.104736 
	C2804.452393,1571.604004 2804.636963,1565.109497 2805.617188,1558.270874 
	C2806.399170,1564.037720 2806.385742,1570.148682 2806.135254,1577.145386 
z"/>
<path fill="#444444" opacity="1.000000" stroke="none" 
	d="
M1560.843262,202.011154 
	C1559.861938,201.606308 1559.795410,201.186050 1559.853027,200.139755 
	C1566.062744,199.546783 1572.148315,199.579865 1579.122314,199.825470 
	C1580.010620,200.038010 1580.006348,200.955154 1580.026123,201.413300 
	C1573.949951,201.912872 1567.854004,201.954315 1560.843262,202.011154 
z"/>
<path fill="#474747" opacity="1.000000" stroke="none" 
	d="
M1428.803711,201.845245 
	C1427.901855,201.731354 1427.888062,200.914688 1427.928223,200.508286 
	C1434.058472,199.931503 1440.148315,199.761139 1447.153320,199.588318 
	C1445.856079,200.394104 1443.690186,201.684479 1441.421021,201.903091 
	C1437.549927,202.276047 1433.614136,201.976288 1428.803711,201.845245 
z"/>
<path fill="#181818" opacity="1.000000" stroke="none" 
	d="
M1110.712891,924.746033 
	C1137.276978,895.534912 1165.668213,869.416016 1199.255615,849.765747 
	C1240.788940,825.466614 1284.367432,805.922485 1332.309448,797.902161 
	C1348.975098,795.114075 1365.692627,792.596558 1382.440430,790.360596 
	C1387.651367,789.664978 1393.040894,790.373413 1398.347290,790.314453 
	C1414.601929,790.133728 1430.855957,789.740967 1447.110352,789.723389 
	C1459.759277,789.709656 1472.620850,788.741638 1485.017090,790.630920 
	C1518.754517,795.772766 1552.688721,799.885620 1585.105225,811.968628 
	C1623.008911,826.096863 1659.376343,842.954407 1692.163086,866.790955 
	C1704.777710,875.961975 1717.385498,885.453613 1728.466675,896.354431 
	C1748.095337,915.663879 1767.645752,935.255859 1785.211182,956.405457 
	C1804.749756,979.930908 1820.832886,1006.074951 1835.429565,1033.074219 
	C1862.357300,1082.881836 1878.821411,1136.458862 1893.792480,1190.695801 
	C1902.033081,1220.549438 1907.523560,1250.844971 1911.815186,1281.430054 
	C1914.531982,1300.792358 1917.627075,1320.111206 1919.849609,1339.529907 
	C1921.319580,1352.373535 1921.710083,1365.352173 1922.284912,1378.283691 
	C1923.111084,1396.873169 1923.435669,1415.486694 1924.410889,1434.067017 
	C1925.140381,1447.962402 1927.130859,1461.806885 1927.485718,1475.701660 
	C1927.755737,1486.275269 1926.007324,1496.884155 1925.753906,1507.491577 
	C1925.420288,1521.451538 1926.097412,1535.442261 1925.543945,1549.388184 
	C1925.058472,1561.620972 1923.454224,1573.808350 1922.389526,1586.019653 
	C1922.071777,1589.663940 1921.961548,1593.326172 1921.662598,1596.972412 
	C1920.036621,1616.794067 1919.173340,1636.719482 1916.533447,1656.406128 
	C1913.320068,1680.369263 1907.655273,1704.016479 1904.763428,1728.006714 
	C1900.642090,1762.196655 1889.203735,1794.505615 1881.289795,1827.711182 
	C1873.158081,1861.830688 1857.849365,1893.325073 1845.031860,1925.703979 
	C1840.415283,1937.366333 1833.275391,1948.044189 1827.124390,1959.080566 
	C1820.650391,1970.696289 1814.127197,1982.289795 1807.326050,1993.714722 
	C1804.633057,1998.238647 1801.173706,2002.312866 1797.983887,2006.531860 
	C1796.386353,2008.644653 1793.983521,2010.363892 1793.018066,2012.703857 
	C1787.387939,2026.349976 1776.720093,2036.016724 1767.032715,2046.487793 
	C1765.023315,2048.659912 1762.735840,2050.896729 1761.651489,2053.544189 
	C1757.955322,2062.568848 1750.843018,2068.424805 1743.881348,2074.688721 
	C1734.308838,2083.301514 1725.287598,2092.528076 1716.057251,2101.519775 
	C1713.012939,2104.485352 1710.329834,2107.893555 1707.000732,2110.480713 
	C1697.852905,2117.589844 1688.439453,2124.356689 1679.163574,2131.302246 
	C1678.135010,2132.072510 1677.363770,2133.176758 1676.390015,2134.031494 
	C1671.690186,2138.157959 1667.582886,2143.592285 1662.132446,2146.116943 
	C1642.513672,2155.203369 1625.578491,2169.131592 1604.994751,2176.555664 
	C1593.800537,2180.593262 1583.603394,2187.319092 1572.688354,2192.237305 
	C1566.719727,2194.926514 1560.220581,2196.471436 1553.903809,2198.339600 
	C1551.054321,2199.182129 1547.863770,2199.075684 1545.171265,2200.212646 
	C1520.278320,2210.725342 1493.388306,2211.083740 1467.346924,2215.724854 
	C1441.064941,2220.408691 1414.540283,2220.839844 1387.993896,2219.519287 
	C1380.105835,2219.126709 1372.335815,2216.760498 1364.455811,2215.723145 
	C1350.662231,2213.907471 1336.617310,2213.422363 1323.045898,2210.605713 
	C1283.731812,2202.446533 1246.403320,2188.610107 1211.879761,2167.917725 
	C1194.776733,2157.666992 1177.440796,2147.527832 1161.645386,2135.459473 
	C1148.846558,2125.680664 1136.293213,2115.118408 1126.327637,2101.989014 
	C1122.398071,2096.811523 1116.862793,2092.885010 1112.572021,2087.943115 
	C1096.483276,2069.413574 1080.587402,2050.959473 1067.898926,2029.542603 
	C1053.828735,2005.793335 1038.761108,1982.615234 1027.201660,1957.526001 
	C1018.172729,1937.929077 1010.755432,1917.596313 1002.273621,1897.739258 
	C989.951416,1868.891357 983.927307,1838.230713 975.964478,1808.124878 
	C972.653015,1795.604614 969.046204,1783.139160 966.369507,1770.480469 
	C963.216736,1755.570679 960.829895,1740.494629 958.293823,1725.459961 
	C956.252991,1713.361084 954.394836,1701.229492 952.631287,1689.086792 
	C951.679016,1682.529541 950.958252,1675.930786 950.369995,1669.329712 
	C948.309570,1646.210205 946.349060,1623.081543 944.365173,1599.955200 
	C944.279907,1598.962036 944.376953,1597.954468 944.323853,1596.957031 
	C941.559570,1545.061523 942.203064,1493.118286 942.477539,1441.190796 
	C942.552734,1426.974609 944.481262,1412.770386 945.494446,1398.556030 
	C946.272949,1387.632812 947.205444,1376.712036 947.621521,1365.773071 
	C948.669800,1338.209229 951.741211,1310.905884 957.174316,1283.856201 
	C960.701660,1266.294922 964.199280,1248.723389 967.371826,1231.095703 
	C977.486084,1174.896484 996.472595,1121.514893 1017.794006,1068.770142 
	C1031.740112,1034.270508 1049.937500,1002.376526 1072.520386,972.935425 
	C1084.851074,956.860046 1097.635620,941.132690 1110.712891,924.746033 
z"/>
<path fill="#191919" opacity="1.000000" stroke="none" 
	d="
M1248.238892,2469.810059 
	C1265.211182,2472.241943 1281.289673,2474.585693 1297.368042,2476.931152 
	C1299.004395,2477.169678 1300.634399,2477.588867 1302.275757,2477.637207 
	C1326.175659,2478.343506 1350.076294,2479.030273 1373.978638,2479.647949 
	C1379.641479,2479.794434 1385.322021,2479.898682 1390.975830,2479.629395 
	C1412.193726,2478.619873 1433.407227,2477.507812 1454.615112,2476.306641 
	C1462.891602,2475.837891 1471.138306,2474.758057 1479.417358,2474.431396 
	C1503.772461,2473.470703 1527.226196,2466.785156 1551.195923,2463.437500 
	C1577.991089,2459.695312 1603.101440,2449.561768 1629.220459,2443.423340 
	C1653.502319,2437.716797 1674.976196,2425.796875 1697.401489,2415.940430 
	C1711.983765,2409.531250 1726.986084,2403.585938 1740.462891,2395.266357 
	C1761.941162,2382.007324 1782.813232,2367.617920 1802.981201,2352.430908 
	C1819.406006,2340.062744 1835.525635,2326.889893 1849.771973,2312.134766 
	C1865.643677,2295.696045 1879.281738,2277.095215 1893.806641,2259.365479 
	C1897.589600,2254.748047 1900.696899,2249.539551 1904.730591,2245.171387 
	C1918.679565,2230.065430 1927.326538,2211.612549 1937.760010,2194.252441 
	C1953.374390,2168.271729 1967.526245,2141.580078 1979.454834,2113.709717 
	C1980.722412,2110.748291 1982.397705,2107.961182 1983.806274,2105.242676 
	C1990.313232,2105.697510 1990.706787,2110.401855 1991.678101,2114.466797 
	C1996.922607,2136.411865 2001.570679,2158.515381 2007.430664,2180.293457 
	C2012.952881,2200.815430 2019.573608,2221.048828 2025.974487,2241.326172 
	C2040.190430,2286.360352 2056.656250,2330.568604 2074.712891,2374.206055 
	C2079.121094,2384.859375 2082.235840,2396.048096 2085.981934,2407.099121 
	C1704.062866,2661.986328 1117.951782,2654.903564 726.873291,2247.650635 
	C328.506805,1832.808472 333.594421,1199.354492 695.296265,791.620605 
	C1087.071045,349.986633 1693.232666,338.554962 2082.596191,595.642639 
	C2077.685547,611.459045 2072.708740,627.594055 2067.666016,643.708435 
	C2055.062744,683.983521 2042.384277,724.235107 2029.837769,764.527832 
	C2026.282227,775.946533 2022.796265,787.400940 2019.770630,798.967712 
	C2013.729248,822.061829 2008.098389,845.263123 2002.109863,868.371460 
	C2001.236450,871.741943 1999.327515,874.844116 1997.176880,879.696594 
	C1993.608398,876.165405 1990.807617,874.004700 1988.765625,871.276123 
	C1973.232910,850.520447 1956.770752,830.350525 1942.725098,808.623047 
	C1929.060547,787.485046 1911.156860,770.125671 1895.590332,750.729065 
	C1885.671631,738.370178 1873.905029,727.460571 1862.656616,716.211609 
	C1849.278320,702.832581 1835.904297,689.413818 1821.883545,676.724976 
	C1812.360229,668.106506 1801.909302,660.467651 1791.550049,652.828735 
	C1774.979736,640.609741 1758.074341,628.846497 1741.433594,616.721619 
	C1721.146729,601.939941 1698.819580,590.814453 1676.229248,580.202393 
	C1634.121216,560.421814 1589.179810,549.414490 1544.083862,539.535278 
	C1520.843140,534.443848 1496.830688,532.884521 1473.173218,529.682495 
	C1424.149170,523.047302 1374.855591,526.194580 1325.672607,525.887268 
	C1312.179932,525.802917 1298.661865,528.182129 1285.171753,529.586975 
	C1245.816650,533.685364 1207.236084,542.381470 1168.673706,550.672852 
	C1146.706909,555.395996 1125.461060,563.652771 1104.081543,570.883118 
	C1074.420776,580.914124 1045.272339,592.514099 1018.498657,608.802795 
	C983.841187,629.887756 948.963196,650.678528 916.760498,675.624695 
	C881.373108,703.038025 848.731689,733.299194 819.818848,767.392578 
	C802.635071,787.655334 785.905884,808.440735 770.648193,830.168030 
	C746.937622,863.932739 726.120789,899.516541 707.423340,936.395142 
	C690.101685,970.560059 675.712891,1005.903503 661.288330,1041.309937 
	C649.938110,1069.169922 643.098572,1098.255005 636.002808,1127.261230 
	C628.278320,1158.837646 621.227783,1190.603271 614.898987,1222.488037 
	C611.031921,1241.970581 608.661743,1261.784424 606.373230,1281.536865 
	C603.702637,1304.586792 603.203491,1327.963135 599.294800,1350.775024 
	C594.762146,1377.228271 596.018372,1403.796021 594.941589,1430.264282 
	C593.443054,1467.099365 594.156189,1504.036621 594.423462,1540.926636 
	C594.594543,1564.528687 595.164734,1588.152222 596.475769,1611.714844 
	C597.875854,1636.878784 599.881531,1662.033081 602.533936,1687.094971 
	C604.311951,1703.895020 608.218811,1720.462769 610.211121,1737.248657 
	C613.581665,1765.646973 620.513916,1793.321533 626.153442,1821.261963 
	C633.650818,1858.407104 642.323853,1895.368530 655.141541,1930.968140 
	C669.427368,1970.645386 686.267334,2009.403931 702.074890,2048.530273 
	C703.314026,2051.597656 705.249573,2054.376465 706.737427,2057.351562 
	C726.569336,2097.001465 750.891235,2133.945557 775.469727,2170.702393 
	C785.074158,2185.065918 795.637756,2198.806152 806.126404,2212.553955 
	C813.155762,2221.767334 820.525085,2230.762939 828.288208,2239.363281 
	C835.830383,2247.718994 844.112183,2255.404297 851.991333,2263.459961 
	C864.696289,2276.449463 877.326416,2289.512451 890.017578,2302.515625 
	C891.874023,2304.417969 893.649536,2306.561523 895.875305,2307.914551 
	C910.481995,2316.794678 922.459778,2328.897461 935.610962,2339.573486 
	C954.391663,2354.819824 974.697998,2367.999268 995.561890,2380.379639 
	C1034.858276,2403.697266 1075.818481,2423.444580 1119.017700,2438.184814 
	C1144.780029,2446.974854 1170.993164,2454.630371 1197.367798,2461.371338 
	C1213.673218,2465.538818 1230.662720,2467.029785 1248.238892,2469.810059 
z"/>
<path fill="#181818" opacity="1.000000" stroke="none" 
	d="
M2321.927002,897.978943 
	C2326.110352,879.705811 2329.994629,862.215149 2334.213867,844.805725 
	C2335.675781,838.773682 2337.969971,832.943298 2340.505615,825.097290 
	C2476.195068,995.211182 2556.196045,1186.515747 2575.254883,1401.535522 
	C2601.239746,1694.696899 2519.212402,1955.865723 2334.908203,2187.617920 
	C2332.875732,2181.606445 2331.281250,2177.758789 2330.276123,2173.763184 
	C2326.390625,2158.316895 2322.842529,2142.785156 2318.899170,2127.354248 
	C2303.772949,2068.165771 2289.498779,2008.785034 2277.676514,1948.832275 
	C2276.006836,1940.365356 2273.377441,1932.091553 2271.552490,1923.650391 
	C2269.384766,1913.623047 2267.812256,1903.465942 2265.600830,1893.449219 
	C2263.315186,1883.096802 2260.340820,1872.895874 2258.075439,1862.539551 
	C2252.690186,1837.922241 2247.317871,1813.297974 2242.360352,1788.592163 
	C2235.835938,1756.079346 2229.622803,1723.503174 2223.465332,1690.918335 
	C2221.063965,1678.209961 2219.457275,1665.349731 2216.983398,1652.657349 
	C2214.383545,1639.317139 2210.845703,1626.158325 2208.310547,1612.807739 
	C2203.426270,1587.084106 2199.016113,1561.270752 2194.288818,1535.516846 
	C2192.671387,1526.705688 2190.375732,1518.009888 2189.012207,1509.165527 
	C2188.318848,1504.669067 2188.301270,1499.820068 2189.183105,1495.369141 
	C2195.569824,1463.132202 2202.325684,1430.968384 2208.803955,1398.749146 
	C2209.975830,1392.920044 2210.020264,1386.859863 2211.251953,1381.047607 
	C2215.234863,1362.253784 2219.692139,1343.560181 2223.660400,1324.763428 
	C2228.186035,1303.327026 2232.082764,1281.755371 2236.787842,1260.360107 
	C2245.269775,1221.790771 2254.159424,1183.311279 2262.860840,1144.790283 
	C2275.369629,1089.415039 2287.527588,1033.957642 2300.506348,978.692810 
	C2306.804443,951.875061 2314.626953,925.415222 2321.927002,897.978943 
z"/>
</svg>